<?xml version="1.0" encoding="UTF-8"?>
<!DOCTYPE svg PUBLIC "-//W3C//DTD SVG 1.1//EN" "http://www.w3.org/Graphics/SVG/1.1/DTD/svg11.dtd">
<!-- Creator: CorelDRAW 2020 (64-Bit) -->
<svg xmlns="http://www.w3.org/2000/svg" xml:space="preserve" width="221px" height="221px" version="1.1" style="shape-rendering:geometricPrecision; text-rendering:geometricPrecision; image-rendering:optimizeQuality; fill-rule:evenodd; clip-rule:evenodd"
viewBox="0 0 8.19 8.19"
 xmlns:xlink="http://www.w3.org/1999/xlink"
 xmlns:xodm="http://www.corel.com/coreldraw/odm/2003">
 <defs>
  <style type="text/css">
   <![CDATA[
    .str0 {stroke:#2B2A29;stroke-width:0.31;stroke-miterlimit:22.9256}
    .fil0 {fill:#7688A1}
    .fil6 {fill:#FE9200}
    .fil32 {fill:#FE9D12}
    .fil22 {fill:#FEDEB6}
    .fil33 {fill:#FEE4C3}
    .fil26 {fill:#FEFAF3}
    .fil23 {fill:#FF7F00}
    .fil34 {fill:#FF8400}
    .fil9 {fill:#FF8700}
    .fil36 {fill:#FF8900}
    .fil11 {fill:#FF8A00}
    .fil19 {fill:#FF8B00}
    .fil27 {fill:#FF8D00}
    .fil15 {fill:#FF8E00}
    .fil24 {fill:#FF8F00}
    .fil7 {fill:#FF9000}
    .fil14 {fill:#FF9100}
    .fil1 {fill:#FF9400}
    .fil4 {fill:#FF9500}
    .fil5 {fill:#FF9600}
    .fil13 {fill:#FF9700}
    .fil16 {fill:#FF9B0C}
    .fil28 {fill:#FF9E00}
    .fil39 {fill:#FFA100}
    .fil12 {fill:#FFA32A}
    .fil38 {fill:#FFAE45}
    .fil30 {fill:#FFAF48}
    .fil37 {fill:#FFB14F}
    .fil18 {fill:#FFB85F}
    .fil21 {fill:#FFBC68}
    .fil25 {fill:#FFBE6E}
    .fil29 {fill:#FFCB8D}
    .fil35 {fill:#FFCC8F}
    .fil10 {fill:#FFCE94}
    .fil8 {fill:#FFF1E1}
    .fil20 {fill:#FFF7F0}
    .fil31 {fill:#FFFBF7}
    .fil17 {fill:#FFFEFD}
    .fil2 {fill:#FFFEFE}
    .fil3 {fill:white}
   ]]>
  </style>
 </defs>
 <g id="Слой_x0020_1">
  <metadata id="CorelCorpID_0Corel-Layer"/>
  <g id="_1372706900432">
   <polygon class="fil0 str0" points="2.94,0.15 2.47,0.15 2.47,0.62 2.01,0.62 2.01,1.08 1.55,1.08 1.55,1.55 1.08,1.55 1.08,2.01 0.62,2.01 0.62,2.47 0.15,2.47 0.15,2.94 0.15,3.86 0.15,4.33 0.15,5.25 0.15,5.72 0.62,5.72 0.62,6.18 1.08,6.18 1.08,6.64 1.55,6.64 1.55,7.11 2.01,7.11 2.01,7.57 2.47,7.57 2.47,8.03 2.94,8.03 3.86,8.03 4.33,8.03 4.79,8.03 5.25,8.03 5.72,8.03 5.72,7.57 6.18,7.57 6.18,7.11 6.64,7.11 6.64,6.64 7.11,6.64 7.11,6.18 7.57,6.18 7.57,5.72 8.03,5.72 8.03,5.25 8.03,4.33 8.03,3.86 8.03,2.94 8.03,2.47 7.57,2.47 7.57,2.01 7.11,2.01 7.11,1.55 6.64,1.55 6.64,1.08 6.18,1.08 6.18,0.62 5.72,0.62 5.72,0.15 5.25,0.15 4.79,0.15 4.33,0.15 3.86,0.15 3.4,0.15 "/>
   <g>
    <path class="fil1" d="M3.86 2.01l0 -0.46 1.39 0 0 0.92 0.93 0 0 3.25 -0.46 0 0 0.46 -1.39 0 0 0.46 -1.39 0 0 -0.46 -0.47 0 0 -0.46 -0.46 0 0 -0.93 0.46 0 0 -0.93 0.47 0 0 -0.92 -0.47 0 0 -0.93 1.39 0zm-1.39 -1.39l0 0.46 -0.46 0 0 0.47 -0.93 0 0 0.92 -0.46 0 0 1.39 -0.47 0 0 0.47 0.47 0 0 1.85 0.46 0 0 0.46 0.93 0 0 0.47 0.46 0 0 0.46 1.39 0 0 0.46 0.47 0 0 -0.46 1.39 0 0 -0.46 0.46 0 0 -0.47 0.93 0 0 -0.92 0.46 0 0 -1.39 0.46 0 0 -0.47 -0.46 0 0 -1.39 -0.46 0 0 -0.92 -0.93 0 0 -0.47 -0.46 0 0 -0.46 -1.39 0 0 -0.47 -0.47 0 0 0.47 -1.39 0z"/>
    <polygon class="fil2" points="2.94,3.86 2.94,6.18 3.4,6.18 3.4,5.72 3.86,5.72 3.86,6.18 4.33,6.18 4.33,5.72 5.72,5.72 5.72,5.25 3.4,5.25 3.4,4.33 4.79,4.33 4.79,3.86 3.86,3.86 3.86,3.4 3.4,3.4 3.4,3.86 "/>
    <polygon class="fil3" points="3.4,2.47 3.4,2.94 5.25,2.94 5.25,2.01 4.79,2.01 4.79,2.47 4.33,2.47 4.33,2.01 3.86,2.01 3.86,2.47 "/>
    <polygon class="fil3" points="5.72,4.79 5.72,4.33 5.25,4.33 5.25,3.86 4.79,3.86 4.79,4.79 "/>
    <polygon class="fil4" points="0.62,2.94 0.15,2.94 0.15,3.86 0.62,3.86 "/>
    <polygon class="fil5" points="8.03,3.86 8.03,2.94 7.57,2.94 7.57,3.86 "/>
    <polygon class="fil5" points="0.62,5.25 0.62,4.33 0.15,4.33 0.15,5.25 "/>
    <polygon class="fil6" points="4.33,5.25 4.33,4.33 3.86,4.33 3.86,5.25 "/>
    <polygon class="fil4" points="8.03,5.25 8.03,4.33 7.57,4.33 7.57,5.25 "/>
    <polygon class="fil5" points="3.86,8.03 3.86,7.57 2.94,7.57 2.94,8.03 "/>
    <polygon class="fil5" points="2.47,0.62 2.01,0.62 2.01,1.08 2.47,1.08 "/>
    <polygon class="fil4" points="6.18,1.08 6.18,0.62 5.72,0.62 5.72,1.08 "/>
    <polygon class="fil7" points="2.01,1.08 1.55,1.08 1.55,1.55 2.01,1.55 "/>
    <polygon class="fil7" points="6.64,1.55 6.64,1.08 6.18,1.08 6.18,1.55 "/>
    <polygon class="fil8" points="4.33,2.01 4.33,1.55 3.86,1.55 3.86,2.01 "/>
    <polygon class="fil6" points="4.79,2.01 4.79,1.55 4.33,1.55 4.33,2.01 "/>
    <polygon class="fil9" points="5.25,2.01 5.25,1.55 4.79,1.55 4.79,2.01 "/>
    <polygon class="fil10" points="3.86,2.01 3.4,2.01 3.4,2.47 3.86,2.47 "/>
    <polygon class="fil5" points="1.08,2.01 0.62,2.01 0.62,2.47 1.08,2.47 "/>
    <polygon class="fil9" points="2.94,2.47 2.94,2.01 2.47,2.01 2.47,2.47 "/>
    <polygon class="fil3" points="3.4,2.47 3.4,2.01 2.94,2.01 2.94,2.47 "/>
    <polygon class="fil11" points="4.79,2.01 4.33,2.01 4.33,2.47 4.79,2.47 "/>
    <polygon class="fil4" points="7.57,2.47 7.57,2.01 7.11,2.01 7.11,2.47 "/>
    <polygon class="fil12" points="5.72,2.94 5.72,2.47 5.25,2.47 5.25,2.94 "/>
    <polygon class="fil13" points="0.62,2.94 0.62,2.47 0.15,2.47 0.15,2.94 "/>
    <polygon class="fil4" points="2.94,2.94 2.94,2.47 2.47,2.47 2.47,2.94 "/>
    <polygon class="fil14" points="3.4,2.94 3.4,2.47 2.94,2.47 2.94,2.94 "/>
    <polygon class="fil4" points="6.18,2.94 6.18,2.47 5.72,2.47 5.72,2.94 "/>
    <polygon class="fil15" points="8.03,2.94 8.03,2.47 7.57,2.47 7.57,2.94 "/>
    <polygon class="fil12" points="6.18,3.4 6.18,2.94 5.72,2.94 5.72,3.4 "/>
    <polygon class="fil16" points="3.4,3.4 3.4,2.94 2.94,2.94 2.94,3.4 "/>
    <polygon class="fil17" points="3.86,3.4 3.86,2.94 3.4,2.94 3.4,3.4 "/>
    <polygon class="fil18" points="4.33,3.4 4.33,2.94 3.86,2.94 3.86,3.4 "/>
    <polygon class="fil19" points="4.79,3.4 4.79,2.94 4.33,2.94 4.33,3.4 "/>
    <polygon class="fil20" points="5.25,3.4 5.25,2.94 4.79,2.94 4.79,3.4 "/>
    <polygon class="fil17" points="5.72,3.4 5.72,2.94 5.25,2.94 5.25,3.4 "/>
    <polygon class="fil2" points="5.72,3.86 5.72,3.4 5.25,3.4 5.25,3.86 "/>
    <polygon class="fil21" points="6.18,3.86 6.18,3.4 5.72,3.4 5.72,3.86 "/>
    <polygon class="fil22" points="3.4,3.4 2.94,3.4 2.94,3.86 3.4,3.86 "/>
    <polygon class="fil23" points="4.33,3.86 4.33,3.4 3.86,3.4 3.86,3.86 "/>
    <polygon class="fil24" points="4.79,3.86 4.79,3.4 4.33,3.4 4.33,3.86 "/>
    <polygon class="fil25" points="5.25,3.86 5.25,3.4 4.79,3.4 4.79,3.86 "/>
    <polygon class="fil4" points="2.94,4.33 2.94,3.86 2.47,3.86 2.47,4.33 "/>
    <polygon class="fil26" points="5.72,4.33 5.72,3.86 5.25,3.86 5.25,4.33 "/>
    <polygon class="fil15" points="6.18,4.33 6.18,3.86 5.72,3.86 5.72,4.33 "/>
    <polygon class="fil27" points="2.94,4.79 2.94,4.33 2.47,4.33 2.47,4.79 "/>
    <polygon class="fil26" points="3.86,4.79 3.86,4.33 3.4,4.33 3.4,4.79 "/>
    <polygon class="fil19" points="4.79,4.79 4.79,4.33 4.33,4.33 4.33,4.79 "/>
    <polygon class="fil28" points="2.94,0.62 2.94,0.15 2.47,0.15 2.47,0.62 "/>
    <polygon class="fil19" points="6.18,4.79 6.18,4.33 5.72,4.33 5.72,4.79 "/>
    <polygon class="fil29" points="2.47,5.25 2.47,4.79 2.01,4.79 2.01,5.25 "/>
    <polygon class="fil4" points="3.4,0.62 3.4,0.15 2.94,0.15 2.94,0.62 "/>
    <polygon class="fil8" points="2.94,5.25 2.94,4.79 2.47,4.79 2.47,5.25 "/>
    <polygon class="fil30" points="3.86,5.25 3.86,4.79 3.4,4.79 3.4,5.25 "/>
    <polygon class="fil5" points="3.86,0.15 3.4,0.15 3.4,0.62 3.86,0.62 "/>
    <polygon class="fil1" points="4.79,5.25 4.79,4.79 4.33,4.79 4.33,5.25 "/>
    <polygon class="fil31" points="5.25,5.25 5.25,4.79 4.79,4.79 4.79,5.25 "/>
    <polygon class="fil17" points="5.72,5.25 5.72,4.79 5.25,4.79 5.25,5.25 "/>
    <polygon class="fil4" points="6.18,5.25 6.18,4.79 5.72,4.79 5.72,5.25 "/>
    <polygon class="fil5" points="4.79,0.62 4.79,0.15 4.33,0.15 4.33,0.62 "/>
    <polygon class="fil27" points="0.62,5.72 0.62,5.25 0.15,5.25 0.15,5.72 "/>
    <polygon class="fil32" points="2.47,5.72 2.47,5.25 2.01,5.25 2.01,5.72 "/>
    <polygon class="fil33" points="2.94,5.72 2.94,5.25 2.47,5.25 2.47,5.72 "/>
    <polygon class="fil19" points="6.18,5.25 5.72,5.25 5.72,5.72 6.18,5.72 "/>
    <polygon class="fil5" points="8.03,5.25 7.57,5.25 7.57,5.72 8.03,5.72 "/>
    <polygon class="fil19" points="2.94,6.18 2.94,5.72 2.47,5.72 2.47,6.18 "/>
    <polygon class="fil34" points="3.86,6.18 3.86,5.72 3.4,5.72 3.4,6.18 "/>
    <polygon class="fil4" points="5.25,0.62 5.25,0.15 4.79,0.15 4.79,0.62 "/>
    <polygon class="fil10" points="4.79,6.18 4.79,5.72 4.33,5.72 4.33,6.18 "/>
    <polygon class="fil35" points="5.25,6.18 5.25,5.72 4.79,5.72 4.79,6.18 "/>
    <polygon class="fil36" points="5.72,5.72 5.25,5.72 5.25,6.18 5.72,6.18 "/>
    <polygon class="fil4" points="7.57,5.72 7.11,5.72 7.11,6.18 7.57,6.18 "/>
    <polygon class="fil36" points="3.4,6.64 3.4,6.18 2.94,6.18 2.94,6.64 "/>
    <polygon class="fil37" points="3.86,6.64 3.86,6.18 3.4,6.18 3.4,6.64 "/>
    <polygon class="fil38" points="4.33,6.18 3.86,6.18 3.86,6.64 4.33,6.64 "/>
    <polygon class="fil7" points="2.01,7.11 2.01,6.64 1.55,6.64 1.55,7.11 "/>
    <polygon class="fil7" points="6.64,6.64 6.18,6.64 6.18,7.11 6.64,7.11 "/>
    <polygon class="fil4" points="2.47,7.57 2.47,7.11 2.01,7.11 2.01,7.57 "/>
    <polygon class="fil4" points="6.18,7.11 5.72,7.11 5.72,7.57 6.18,7.57 "/>
    <polygon class="fil6" points="2.94,8.03 2.94,7.57 2.47,7.57 2.47,8.03 "/>
    <polygon class="fil7" points="5.72,0.62 5.72,0.15 5.25,0.15 5.25,0.62 "/>
    <polygon class="fil5" points="4.79,8.03 4.79,7.57 4.33,7.57 4.33,8.03 "/>
    <polygon class="fil4" points="5.25,8.03 5.25,7.57 4.79,7.57 4.79,8.03 "/>
    <polygon class="fil39" points="5.72,7.57 5.25,7.57 5.25,8.03 5.72,8.03 "/>
   </g>
  </g>
 </g>
</svg>
