<?xml version="1.0" encoding="UTF-8"?>
<!DOCTYPE svg PUBLIC "-//W3C//DTD SVG 1.1//EN" "http://www.w3.org/Graphics/SVG/1.1/DTD/svg11.dtd">
<!-- Creator: CorelDRAW 2020 (64-Bit) -->
<svg xmlns="http://www.w3.org/2000/svg" xml:space="preserve" width="221px" height="221px" version="1.1" style="shape-rendering:geometricPrecision; text-rendering:geometricPrecision; image-rendering:optimizeQuality; fill-rule:evenodd; clip-rule:evenodd"
viewBox="0 0 8.21 8.21"
 xmlns:xlink="http://www.w3.org/1999/xlink"
 xmlns:xodm="http://www.corel.com/coreldraw/odm/2003">
 <defs>
  <style type="text/css">
   <![CDATA[
    .str0 {stroke:#2B2A29;stroke-width:0.31;stroke-miterlimit:22.9256}
    .fil0 {fill:#7688A1}
    .fil37 {fill:#008383}
    .fil14 {fill:#008787}
    .fil6 {fill:#008989}
    .fil5 {fill:darkcyan}
    .fil42 {fill:#008D8D}
    .fil17 {fill:#008E8D}
    .fil27 {fill:#008F8F}
    .fil2 {fill:#009494}
    .fil41 {fill:#009B9B}
    .fil4 {fill:#009C9C}
    .fil23 {fill:#009E9E}
    .fil25 {fill:#00A2A2}
    .fil39 {fill:#00A8A8}
    .fil19 {fill:#00AAAB}
    .fil26 {fill:#00ADAE}
    .fil20 {fill:#00AEAE}
    .fil24 {fill:#00AFAF}
    .fil16 {fill:#00B1B2}
    .fil18 {fill:#00B3B5}
    .fil10 {fill:#4DC5C6}
    .fil21 {fill:#56C3C4}
    .fil15 {fill:#5EC9C9}
    .fil22 {fill:#67CDCD}
    .fil28 {fill:#7BD0D0}
    .fil30 {fill:#A8E6E6}
    .fil38 {fill:#AEE3E3}
    .fil34 {fill:#B5DFE0}
    .fil29 {fill:#B7EBEB}
    .fil35 {fill:#C0E2E3}
    .fil40 {fill:#CFE7E8}
    .fil31 {fill:#D1E8E9}
    .fil33 {fill:#DAF1F1}
    .fil32 {fill:#DCF2F2}
    .fil36 {fill:#E4F5F5}
    .fil1 {fill:#EAEEF0}
    .fil7 {fill:#F2F0F2}
    .fil8 {fill:#F4F2F3}
    .fil9 {fill:#F6F3F4}
    .fil12 {fill:#FFF5F6}
    .fil11 {fill:#FFF8F9}
    .fil13 {fill:#FFF9FA}
    .fil3 {fill:white}
   ]]>
  </style>
 </defs>
 <g id="Слой_x0020_1">
  <metadata id="CorelCorpID_0Corel-Layer"/>
  <g id="_1373120567904">
   <polygon class="fil0 str0" points="2.01,7.12 2.01,7.59 2.48,7.59 2.48,8.05 5.73,8.05 5.73,7.59 6.19,7.59 6.19,7.12 6.66,7.12 6.66,6.66 7.12,6.66 7.12,6.19 7.59,6.19 7.59,5.73 8.05,5.73 8.05,2.48 7.59,2.48 7.59,2.01 7.12,2.01 7.12,1.55 6.66,1.55 6.66,1.08 6.19,1.08 6.19,0.62 5.73,0.62 5.73,0.15 2.48,0.15 2.48,0.62 2.01,0.62 2.01,1.08 1.55,1.08 1.55,1.55 1.08,1.55 1.08,2.01 0.62,2.01 0.62,2.48 0.15,2.48 0.15,5.73 0.62,5.73 0.62,6.19 1.08,6.19 1.08,6.66 1.55,6.66 1.55,7.12 "/>
   <g>
    <path class="fil1" d="M0.6 3.88l-0.03 -0.53 0.51 0.03 0.47 0.03 0 -0.49 -0.01 -0.44 0 -0.48 0.47 0.01 4.18 0 0.48 -0.01 -0.01 0.48 0 0.47 0.45 0 0.01 0.45 0.49 -0.01 -0.02 0.48 -0.01 0.46 -0.46 0 0 0.47 -0.46 0 0 0.46 -0.47 0 0.01 0.47 0.01 0.49 -0.48 -0.02 -0.47 -0.01 0 0.47 -0.46 0 -0.01 0.46 -0.45 0 0 0.48 -0.47 0 0 -0.48 -0.46 0 0 -0.46 -0.47 0 0 -0.47 -0.46 0.01 -0.49 0.01 0.01 -0.48 0.01 -0.47 -0.46 0 0 -0.46 -0.47 0 0 -0.47 -0.44 -0.01 -0.04 -0.44zm1.88 -3.26l-0.47 0 0 0.46 -0.46 0 0 0.47 -0.47 0 0 0.46 -0.46 0 0 0.47 -0.47 0 0 3.25 0.47 0 0 0.46 0.46 0 0 0.47 0.47 0 0 0.46 0.46 0 0 0.47 0.47 0 0 0.46 3.25 0 0 -0.46 0.46 0 0 -0.47 0.47 0 0 -0.46 0.46 0 0 -0.47 0.47 0 0 -0.46 0.46 0 0 -3.25 -0.46 0 0 -0.47 -0.47 0 0 -0.46 -0.46 0 0 -0.47 -0.47 0 0 -0.46 -0.46 0 0 -0.47 -3.25 0 0 0.47z"/>
    <polygon class="fil2" points="2.01,2.48 2.01,2.92 1.55,2.92 1.55,3.41 1.55,3.87 1.08,3.88 1.08,4.33 1.55,4.34 1.55,4.8 2.03,4.78 2.01,3.87 2.49,3.87 2.49,3.41 2.5,2.94 2.52,2.48 5.73,2.48 5.73,2.94 5.72,3.41 5.72,3.87 6.19,3.87 6.18,4.79 6.66,4.8 6.66,4.34 7.12,4.33 7.12,3.87 6.66,3.87 6.66,3.41 6.66,2.95 6.66,2.48 6.19,2.48 6.19,2.01 2.01,2.01 "/>
    <polygon class="fil2" points="2.01,5.26 2,5.73 2.48,5.73 2.48,6.2 2.94,6.19 3.41,6.19 3.41,6.66 3.87,6.66 3.87,7.12 4.34,7.12 4.33,6.66 4.8,6.66 4.8,6.19 5.26,6.19 5.73,6.2 5.73,5.73 6.2,5.73 6.19,5.26 6.18,4.79 5.73,4.79 5.26,4.8 5.25,5.26 4.8,5.26 4.8,5.71 4.35,5.72 4.36,6.19 3.88,6.19 3.88,5.73 3.87,5.18 3.41,5.22 2.96,5.26 2.95,4.8 2.48,4.78 2.03,4.78 "/>
    <polygon class="fil3" points="2.94,3.41 3.41,3.41 3.87,3.41 3.87,3.87 3.87,4.34 4.34,4.34 4.34,3.87 4.34,3.41 4.8,3.41 5.27,3.41 5.27,2.94 2.94,2.94 "/>
    <polygon class="fil4" points="2.5,2.94 2.94,2.94 5.27,2.94 5.73,2.94 5.73,2.48 2.52,2.48 "/>
    <polygon class="fil3" points="3.87,5.18 3.88,5.73 4.35,5.72 4.34,5.26 4.34,4.8 3.87,4.8 "/>
    <polygon class="fil5" points="4.8,3.87 5.26,3.87 5.72,3.87 5.72,3.41 5.27,3.41 4.8,3.41 "/>
    <polygon class="fil5" points="2.49,3.87 2.94,3.87 3.41,3.87 3.41,3.41 2.94,3.41 2.49,3.41 "/>
    <polygon class="fil6" points="5.73,4.34 5.73,4.79 6.18,4.79 6.19,3.87 5.72,3.87 "/>
    <polygon class="fil6" points="2.03,4.78 2.48,4.78 2.48,4.34 2.49,3.87 2.01,3.87 "/>
    <polygon class="fil7" points="0.6,3.88 1.08,3.88 1.08,3.38 0.57,3.35 "/>
    <polygon class="fil8" points="5.73,6.2 6.21,6.22 6.2,5.73 5.73,5.73 "/>
    <polygon class="fil8" points="2.48,6.2 2.48,5.73 2,5.73 1.99,6.21 "/>
    <polygon class="fil9" points="7.12,3.87 7.59,3.87 7.61,3.39 7.12,3.4 "/>
    <polygon class="fil10" points="2.01,5.26 2.03,4.78 1.55,4.8 1.55,5.26 "/>
    <polygon class="fil11" points="4.34,7.12 3.87,7.12 3.87,7.6 4.34,7.6 "/>
    <polygon class="fil12" points="1.54,2.48 2.01,2.48 2.01,2.01 1.54,2 "/>
    <polygon class="fil13" points="6.66,2.48 6.67,2 6.19,2.01 6.19,2.48 "/>
    <polygon class="fil5" points="1.08,3.88 1.55,3.87 1.55,3.41 1.08,3.38 "/>
    <polygon class="fil14" points="4.35,5.72 3.88,5.73 3.88,6.19 4.36,6.19 "/>
    <polygon class="fil15" points="6.19,5.26 6.66,5.26 6.66,4.8 6.18,4.79 "/>
    <polygon class="fil16" points="1.55,4.8 1.55,4.34 1.08,4.33 1.08,4.8 "/>
    <polygon class="fil17" points="7.12,3.87 7.12,3.4 6.66,3.41 6.66,3.87 "/>
    <polygon class="fil18" points="6.66,4.8 7.12,4.8 7.12,4.33 6.66,4.34 "/>
    <polygon class="fil19" points="4.8,4.34 5.26,4.34 5.26,3.87 4.8,3.87 "/>
    <polygon class="fil20" points="2.94,4.34 3.41,4.34 3.41,3.87 2.94,3.87 "/>
    <polygon class="fil21" points="3.41,3.87 3.87,3.87 3.87,3.41 3.41,3.41 "/>
    <polygon class="fil22" points="4.34,3.87 4.8,3.87 4.8,3.41 4.34,3.41 "/>
    <polygon class="fil23" points="4.34,5.26 4.8,5.26 4.8,4.8 4.34,4.8 "/>
    <polygon class="fil24" points="3.41,4.8 3.87,4.8 3.87,4.34 3.41,4.34 "/>
    <polygon class="fil25" points="3.87,4.8 4.34,4.8 4.34,4.34 3.87,4.34 "/>
    <polygon class="fil26" points="4.34,4.8 4.8,4.8 4.8,4.34 4.34,4.34 "/>
    <polygon class="fil27" points="3.41,4.34 3.87,4.34 3.87,3.87 3.41,3.87 "/>
    <polygon class="fil23" points="4.34,4.34 4.8,4.34 4.8,3.87 4.34,3.87 "/>
    <polygon class="fil3" points="5.26,4.8 5.73,4.79 5.73,4.34 5.26,4.34 "/>
    <polygon class="fil28" points="4.8,6.66 5.26,6.66 5.26,6.19 4.8,6.19 "/>
    <polygon class="fil28" points="3.41,6.66 3.41,6.19 2.94,6.19 2.94,6.66 "/>
    <polygon class="fil29" points="2.48,4.34 2.94,4.34 2.94,3.87 2.49,3.87 "/>
    <polygon class="fil30" points="5.26,4.34 5.73,4.34 5.72,3.87 5.26,3.87 "/>
    <polygon class="fil31" points="7.12,4.33 7.58,4.33 7.59,3.87 7.12,3.87 "/>
    <polygon class="fil32" points="2.95,4.8 3.41,4.8 3.41,4.34 2.94,4.34 "/>
    <polygon class="fil33" points="4.8,4.8 5.26,4.8 5.26,4.34 4.8,4.34 "/>
    <polygon class="fil34" points="3.87,7.12 3.87,6.66 3.41,6.66 3.41,7.12 "/>
    <polygon class="fil3" points="2.48,4.78 2.95,4.8 2.94,4.34 2.48,4.34 "/>
    <polygon class="fil35" points="4.34,7.12 4.79,7.12 4.8,6.66 4.33,6.66 "/>
    <polygon class="fil36" points="5.27,3.41 5.72,3.41 5.73,2.94 5.27,2.94 "/>
    <polygon class="fil37" points="4.8,5.26 5.25,5.26 5.26,4.8 4.8,4.8 "/>
    <polygon class="fil38" points="2.49,3.41 2.94,3.41 2.94,2.94 2.5,2.94 "/>
    <polygon class="fil39" points="4.35,5.72 4.8,5.71 4.8,5.26 4.34,5.26 "/>
    <polygon class="fil40" points="1.08,4.33 1.08,3.88 0.6,3.88 0.64,4.32 "/>
    <polygon class="fil41" points="1.55,2.92 2.01,2.92 2.01,2.48 1.54,2.48 "/>
    <polygon class="fil40" points="6.66,3.41 7.12,3.4 7.11,2.95 6.66,2.95 "/>
    <polygon class="fil37" points="3.41,5.22 3.41,4.8 2.95,4.8 2.96,5.26 "/>
    <polygon class="fil42" points="3.41,5.22 3.87,5.18 3.87,4.8 3.41,4.8 "/>
   </g>
  </g>
 </g>
</svg>
