<?xml version="1.0" encoding="UTF-8"?>
<!DOCTYPE svg PUBLIC "-//W3C//DTD SVG 1.1//EN" "http://www.w3.org/Graphics/SVG/1.1/DTD/svg11.dtd">
<!-- Creator: CorelDRAW 2020 (64-Bit) -->
<svg xmlns="http://www.w3.org/2000/svg" xml:space="preserve" width="212px" height="212px" version="1.1" style="shape-rendering:geometricPrecision; text-rendering:geometricPrecision; image-rendering:optimizeQuality; fill-rule:evenodd; clip-rule:evenodd"
viewBox="0 0 7.54 7.54"
 xmlns:xlink="http://www.w3.org/1999/xlink"
 xmlns:xodm="http://www.corel.com/coreldraw/odm/2003">
 <defs>
  <style type="text/css">
   <![CDATA[
    .fil19 {fill:#000002}
    .fil20 {fill:#000004}
    .fil8 {fill:#00040B}
    .fil29 {fill:#00060E}
    .fil36 {fill:#010A12}
    .fil34 {fill:#020A12}
    .fil15 {fill:#020E15}
    .fil24 {fill:#030E17}
    .fil4 {fill:#04060A}
    .fil33 {fill:#05090B}
    .fil23 {fill:#061218}
    .fil13 {fill:#07090B}
    .fil16 {fill:#070A0C}
    .fil27 {fill:#0A141D}
    .fil26 {fill:#0B171E}
    .fil37 {fill:#121C25}
    .fil38 {fill:#152027}
    .fil7 {fill:#19232A}
    .fil1 {fill:#19232B}
    .fil25 {fill:#19262C}
    .fil0 {fill:#1A242B}
    .fil6 {fill:#1B272E}
    .fil9 {fill:#1B272F}
    .fil3 {fill:#1C262C}
    .fil5 {fill:#1D272E}
    .fil17 {fill:#1E282F}
    .fil12 {fill:#283237}
    .fil10 {fill:#2A3139}
    .fil35 {fill:#2D353C}
    .fil32 {fill:#2F373E}
    .fil28 {fill:#596166}
    .fil30 {fill:#596266}
    .fil21 {fill:#9CA0A3}
    .fil22 {fill:#9CA1A3}
    .fil14 {fill:#B1B5B8}
    .fil18 {fill:#B5B7BA}
    .fil31 {fill:#FBFEFE}
    .fil2 {fill:#FDFEFE}
    .fil11 {fill:#FEFFFF}
   ]]>
  </style>
 </defs>
 <g id="Слой_x0020_1">
  <metadata id="CorelCorpID_0Corel-Layer"/>
  <g id="_1372708589088">
   <polygon class="fil0" points="2.22,0.44 2.22,0.89 1.33,0.89 1.33,1.33 2.22,1.33 2.22,1.77 2.66,1.77 2.66,2.22 3.11,2.22 3.11,2.66 3.55,2.66 3.55,3.11 3.99,3.11 3.99,2.66 4.44,2.66 4.44,2.22 4.88,2.22 4.88,1.77 5.32,1.77 5.32,1.33 6.21,1.33 6.21,0.89 5.32,0.89 5.32,0.44 3.99,0.44 3.99,0 3.55,0 3.55,0.44 "/>
   <polygon class="fil0" points="2.66,5.32 2.66,5.77 2.22,5.77 2.22,6.21 1.77,6.21 1.77,6.66 2.22,6.66 2.22,7.1 3.55,7.1 3.55,7.54 3.99,7.54 3.99,7.1 5.32,7.1 5.32,6.66 5.77,6.66 5.77,6.21 5.32,6.21 5.32,5.77 4.88,5.77 4.88,5.32 4.44,5.32 4.44,4.88 3.11,4.88 3.11,5.32 "/>
   <polygon class="fil1" points="0.44,2.22 0.44,3.55 0,3.55 0,3.99 0.44,3.99 0.44,5.32 0.89,5.32 0.89,5.77 1.33,5.77 1.33,5.32 2.22,5.32 2.22,4.44 2.66,4.44 2.66,3.55 2.22,3.55 2.22,3.11 1.77,3.11 1.77,2.66 1.33,2.66 1.33,1.77 0.89,1.77 0.89,2.22 "/>
   <polygon class="fil0" points="5.77,2.66 5.77,3.11 5.32,3.11 5.32,3.55 4.88,3.55 4.88,4.44 5.32,4.44 5.32,4.88 5.77,4.88 5.77,5.32 6.21,5.32 6.21,5.77 6.66,5.77 6.66,5.32 7.1,5.32 7.1,3.99 7.54,3.99 7.54,3.55 7.1,3.55 7.1,2.22 6.66,2.22 6.66,1.77 6.21,1.77 6.21,2.66 "/>
   <polygon class="fil2" points="4.44,3.55 4.44,3.11 3.11,3.11 3.11,3.55 "/>
   <polygon class="fil2" points="4.44,4.44 4.44,3.99 3.11,3.99 3.11,4.44 "/>
   <polygon class="fil3" points="6.21,1.77 6.21,1.33 5.32,1.33 5.32,1.77 "/>
   <polygon class="fil3" points="2.22,1.77 2.22,1.33 1.33,1.33 1.33,1.77 "/>
   <polygon class="fil4" points="5.32,0.44 5.32,0 4.88,0 4.88,0.44 "/>
   <polygon class="fil5" points="2.22,0.44 1.77,0.44 1.77,0.89 2.22,0.89 "/>
   <polygon class="fil6" points="5.77,0.89 5.77,0.44 5.32,0.44 5.32,0.89 "/>
   <polygon class="fil7" points="6.66,1.77 6.66,1.33 6.21,1.33 6.21,1.77 "/>
   <polygon class="fil7" points="1.33,1.77 1.33,1.33 0.89,1.33 0.89,1.77 "/>
   <polygon class="fil4" points="2.66,0.44 2.66,0 2.22,0 2.22,0.44 "/>
   <polygon class="fil8" points="5.32,2.22 5.32,1.77 4.88,1.77 4.88,2.22 "/>
   <polygon class="fil9" points="0.89,1.77 0.44,1.77 0.44,2.22 0.89,2.22 "/>
   <polygon class="fil10" points="1.77,2.22 1.77,1.77 1.33,1.77 1.33,2.22 "/>
   <polygon class="fil11" points="2.22,2.22 2.22,1.77 1.77,1.77 1.77,2.22 "/>
   <polygon class="fil8" points="2.66,2.22 2.66,1.77 2.22,1.77 2.22,2.22 "/>
   <polygon class="fil11" points="5.77,2.22 5.77,1.77 5.32,1.77 5.32,2.22 "/>
   <polygon class="fil12" points="6.21,2.22 6.21,1.77 5.77,1.77 5.77,2.22 "/>
   <polygon class="fil9" points="7.1,2.22 7.1,1.77 6.66,1.77 6.66,2.22 "/>
   <polygon class="fil13" points="0.44,2.66 0.44,2.22 0,2.22 0,2.66 "/>
   <polygon class="fil1" points="1.77,2.66 1.77,2.22 1.33,2.22 1.33,2.66 "/>
   <polygon class="fil14" points="2.22,2.66 2.22,2.22 1.77,2.22 1.77,2.66 "/>
   <polygon class="fil11" points="2.66,2.66 2.66,2.22 2.22,2.22 2.22,2.66 "/>
   <polygon class="fil15" points="3.11,2.66 3.11,2.22 2.66,2.22 2.66,2.66 "/>
   <polygon class="fil15" points="4.88,2.66 4.88,2.22 4.44,2.22 4.44,2.66 "/>
   <polygon class="fil11" points="5.32,2.66 5.32,2.22 4.88,2.22 4.88,2.66 "/>
   <polygon class="fil14" points="5.77,2.66 5.77,2.22 5.32,2.22 5.32,2.66 "/>
   <polygon class="fil1" points="6.21,2.22 5.77,2.22 5.77,2.66 6.21,2.66 "/>
   <polygon class="fil16" points="7.54,2.66 7.54,2.22 7.1,2.22 7.1,2.66 "/>
   <polygon class="fil9" points="0.44,3.11 0.44,2.66 0,2.66 0,3.11 "/>
   <polygon class="fil17" points="2.22,3.11 2.22,2.66 1.77,2.66 1.77,3.11 "/>
   <polygon class="fil18" points="2.66,3.11 2.66,2.66 2.22,2.66 2.22,3.11 "/>
   <polygon class="fil2" points="3.11,3.11 3.11,2.66 2.66,2.66 2.66,3.11 "/>
   <polygon class="fil19" points="3.55,3.11 3.55,2.66 3.11,2.66 3.11,3.11 "/>
   <polygon class="fil20" points="4.44,3.11 4.44,2.66 3.99,2.66 3.99,3.11 "/>
   <polygon class="fil11" points="4.88,3.11 4.88,2.66 4.44,2.66 4.44,3.11 "/>
   <polygon class="fil18" points="5.32,3.11 5.32,2.66 4.88,2.66 4.88,3.11 "/>
   <polygon class="fil5" points="5.77,2.66 5.32,2.66 5.32,3.11 5.77,3.11 "/>
   <polygon class="fil9" points="7.54,3.11 7.54,2.66 7.1,2.66 7.1,3.11 "/>
   <polygon class="fil3" points="0.44,3.11 0,3.11 0,3.55 0.44,3.55 "/>
   <polygon class="fil17" points="2.66,3.55 2.66,3.11 2.22,3.11 2.22,3.55 "/>
   <polygon class="fil21" points="3.11,3.55 3.11,3.11 2.66,3.11 2.66,3.55 "/>
   <polygon class="fil22" points="4.88,3.55 4.88,3.11 4.44,3.11 4.44,3.55 "/>
   <polygon class="fil5" points="5.32,3.11 4.88,3.11 4.88,3.55 5.32,3.55 "/>
   <polygon class="fil3" points="7.54,3.55 7.54,3.11 7.1,3.11 7.1,3.55 "/>
   <polygon class="fil3" points="3.11,3.99 3.11,3.55 2.66,3.55 2.66,3.99 "/>
   <polygon class="fil15" points="3.55,3.99 3.55,3.55 3.11,3.55 3.11,3.99 "/>
   <polygon class="fil23" points="3.99,3.99 3.99,3.55 3.55,3.55 3.55,3.99 "/>
   <polygon class="fil24" points="4.44,3.99 4.44,3.55 3.99,3.55 3.99,3.99 "/>
   <polygon class="fil25" points="4.88,3.99 4.88,3.55 4.44,3.55 4.44,3.99 "/>
   <polygon class="fil3" points="0.44,4.44 0.44,3.99 0,3.99 0,4.44 "/>
   <polygon class="fil26" points="3.11,4.44 3.11,3.99 2.66,3.99 2.66,4.44 "/>
   <polygon class="fil9" points="3.11,0.44 3.11,0 2.66,0 2.66,0.44 "/>
   <polygon class="fil27" points="4.88,4.44 4.88,3.99 4.44,3.99 4.44,4.44 "/>
   <polygon class="fil3" points="7.54,4.44 7.54,3.99 7.1,3.99 7.1,4.44 "/>
   <polygon class="fil9" points="0.44,4.88 0.44,4.44 0,4.44 0,4.88 "/>
   <polygon class="fil25" points="2.66,4.88 2.66,4.44 2.22,4.44 2.22,4.88 "/>
   <polygon class="fil2" points="3.11,4.88 3.11,4.44 2.66,4.44 2.66,4.88 "/>
   <polygon class="fil28" points="3.55,4.88 3.55,4.44 3.11,4.44 3.11,4.88 "/>
   <polygon class="fil29" points="3.99,4.88 3.99,4.44 3.55,4.44 3.55,4.88 "/>
   <polygon class="fil30" points="4.44,4.88 4.44,4.44 3.99,4.44 3.99,4.88 "/>
   <polygon class="fil2" points="4.88,4.88 4.88,4.44 4.44,4.44 4.44,4.88 "/>
   <polygon class="fil3" points="5.32,4.88 5.32,4.44 4.88,4.44 4.88,4.88 "/>
   <polygon class="fil9" points="7.54,4.88 7.54,4.44 7.1,4.44 7.1,4.88 "/>
   <polygon class="fil16" points="0.44,5.32 0.44,4.88 0,4.88 0,5.32 "/>
   <polygon class="fil31" points="2.66,5.32 2.66,4.88 2.22,4.88 2.22,5.32 "/>
   <polygon class="fil32" points="3.11,4.88 2.66,4.88 2.66,5.32 3.11,5.32 "/>
   <polygon class="fil32" points="4.88,5.32 4.88,4.88 4.44,4.88 4.44,5.32 "/>
   <polygon class="fil31" points="5.32,5.32 5.32,4.88 4.88,4.88 4.88,5.32 "/>
   <polygon class="fil7" points="5.77,5.32 5.77,4.88 5.32,4.88 5.32,5.32 "/>
   <polygon class="fil33" points="7.54,4.88 7.1,4.88 7.1,5.32 7.54,5.32 "/>
   <polygon class="fil9" points="0.89,5.77 0.89,5.32 0.44,5.32 0.44,5.77 "/>
   <polygon class="fil3" points="3.55,0 3.11,0 3.11,0.44 3.55,0.44 "/>
   <polygon class="fil34" points="1.77,5.77 1.77,5.32 1.33,5.32 1.33,5.77 "/>
   <polygon class="fil11" points="2.22,5.77 2.22,5.32 1.77,5.32 1.77,5.77 "/>
   <polygon class="fil35" points="2.66,5.32 2.22,5.32 2.22,5.77 2.66,5.77 "/>
   <polygon class="fil35" points="5.32,5.77 5.32,5.32 4.88,5.32 4.88,5.77 "/>
   <polygon class="fil11" points="5.77,5.77 5.77,5.32 5.32,5.32 5.32,5.77 "/>
   <polygon class="fil36" points="6.21,5.77 6.21,5.32 5.77,5.32 5.77,5.77 "/>
   <polygon class="fil3" points="4.44,0.44 4.44,0 3.99,0 3.99,0.44 "/>
   <polygon class="fil9" points="7.1,5.32 6.66,5.32 6.66,5.77 7.1,5.77 "/>
   <polygon class="fil7" points="1.33,6.21 1.33,5.77 0.89,5.77 0.89,6.21 "/>
   <polygon class="fil37" points="1.77,6.21 1.77,5.77 1.33,5.77 1.33,6.21 "/>
   <polygon class="fil38" points="2.22,5.77 1.77,5.77 1.77,6.21 2.22,6.21 "/>
   <polygon class="fil38" points="5.77,6.21 5.77,5.77 5.32,5.77 5.32,6.21 "/>
   <polygon class="fil37" points="6.21,6.21 6.21,5.77 5.77,5.77 5.77,6.21 "/>
   <polygon class="fil7" points="6.66,5.77 6.21,5.77 6.21,6.21 6.66,6.21 "/>
   <polygon class="fil0" points="1.77,6.66 1.77,6.21 1.33,6.21 1.33,6.66 "/>
   <polygon class="fil0" points="6.21,6.21 5.77,6.21 5.77,6.66 6.21,6.66 "/>
   <polygon class="fil25" points="2.22,7.1 2.22,6.66 1.77,6.66 1.77,7.1 "/>
   <polygon class="fil5" points="5.77,6.66 5.32,6.66 5.32,7.1 5.77,7.1 "/>
   <polygon class="fil5" points="3.11,7.54 3.11,7.1 2.66,7.1 2.66,7.54 "/>
   <polygon class="fil13" points="2.66,7.54 2.66,7.1 2.22,7.1 2.22,7.54 "/>
   <polygon class="fil3" points="3.55,7.54 3.55,7.1 3.11,7.1 3.11,7.54 "/>
   <polygon class="fil9" points="4.88,0.44 4.88,0 4.44,0 4.44,0.44 "/>
   <polygon class="fil3" points="4.44,7.54 4.44,7.1 3.99,7.1 3.99,7.54 "/>
   <polygon class="fil5" points="4.88,7.54 4.88,7.1 4.44,7.1 4.44,7.54 "/>
   <polygon class="fil33" points="5.32,7.1 4.88,7.1 4.88,7.54 5.32,7.54 "/>
  </g>
 </g>
</svg>
